<mxfile>
    <diagram id="XjcLAlhxIqI1T3LkZUkb" name="第 1 页">
        <mxGraphModel dx="1817" dy="575" grid="1" gridSize="10" guides="1" tooltips="1" connect="1" arrows="1" fold="1" page="1" pageScale="1" pageWidth="827" pageHeight="1169" math="0" shadow="0">
            <root>
                <mxCell id="0"/>
                <mxCell id="1" parent="0"/>
                <mxCell id="13" value="&lt;table border=&quot;1&quot; width=&quot;100%&quot; cellpadding=&quot;4&quot; style=&quot;width: 100% ; height: 100% ; border-collapse: collapse&quot;&gt;&lt;tbody&gt;&lt;tr&gt;&lt;th&gt;&lt;pre style=&quot;background-color: #2b2b2b ; color: #a9b7c6 ; font-family: &amp;#34;jetbrains mono&amp;#34; , monospace ; font-size: 9.8pt&quot;&gt;recommend_pic  [保存图片]&lt;/pre&gt;&lt;/th&gt;&lt;/tr&gt;&lt;tr&gt;&lt;td&gt;+ picture_id : Char&amp;nbsp; [照片id]&lt;br&gt;+ picture_key : Char&amp;nbsp; [对应推荐编号]&lt;br&gt;+ picture : Image&amp;nbsp; [图片存储地址]&lt;/td&gt;&lt;/tr&gt;&lt;tr&gt;&lt;td&gt;+ create(picture_id, picture_key,&lt;br&gt;&amp;nbsp;picture)&amp;nbsp; [生成条目]&lt;br&gt;+ delete(picture_key)&amp;nbsp; [删除条目]&lt;br&gt;+ download_pic(path)&amp;nbsp; [下载图片]&lt;/td&gt;&lt;/tr&gt;&lt;/tbody&gt;&lt;/table&gt;" style="text;html=1;overflow=fill;strokeColor=#0000FF;align=left;" parent="1" vertex="1">
                    <mxGeometry x="285" y="190" width="200" height="165" as="geometry"/>
                </mxCell>
                <mxCell id="43" style="edgeStyle=orthogonalEdgeStyle;rounded=0;orthogonalLoop=1;jettySize=auto;html=1;exitX=1;exitY=0.5;exitDx=0;exitDy=0;entryX=0;entryY=0.5;entryDx=0;entryDy=0;" parent="1" source="14" target="15" edge="1">
                    <mxGeometry relative="1" as="geometry"/>
                </mxCell>
                <mxCell id="47" style="edgeStyle=orthogonalEdgeStyle;rounded=0;orthogonalLoop=1;jettySize=auto;html=1;entryX=0.5;entryY=1;entryDx=0;entryDy=0;" edge="1" parent="1" source="14" target="13">
                    <mxGeometry relative="1" as="geometry"/>
                </mxCell>
                <mxCell id="49" value="" style="edgeStyle=orthogonalEdgeStyle;rounded=0;orthogonalLoop=1;jettySize=auto;html=1;" edge="1" parent="1" source="14" target="48">
                    <mxGeometry relative="1" as="geometry"/>
                </mxCell>
                <mxCell id="14" value="&lt;table border=&quot;1&quot; width=&quot;100%&quot; cellpadding=&quot;4&quot; style=&quot;width: 100% ; height: 100% ; border-collapse: collapse&quot;&gt;&lt;tbody&gt;&lt;tr&gt;&lt;th&gt;&lt;pre style=&quot;background-color: #2b2b2b ; color: #a9b7c6 ; font-family: &amp;#34;jetbrains mono&amp;#34; , monospace ; font-size: 9.8pt&quot;&gt;&lt;pre style=&quot;font-family: &amp;#34;jetbrains mono&amp;#34; , monospace ; font-size: 9.8pt&quot;&gt;recommend_info  [保存推荐信息]&lt;/pre&gt;&lt;/pre&gt;&lt;/th&gt;&lt;/tr&gt;&lt;tr&gt;&lt;td&gt;+ recommend_key : Char&amp;nbsp; [推荐id]&lt;br&gt;+ recommend_user : Char&amp;nbsp; [推荐用户]&lt;br&gt;+ recommend_title : Text&amp;nbsp; [推荐标题]&lt;br&gt;+ recommend_time : Text&amp;nbsp; [推荐信息所属时段]&lt;br&gt;+ recommend_catalog : Text&amp;nbsp; [推荐信息所属种类]&lt;br&gt;+ recommend_text : Text&amp;nbsp; [推荐文本]&lt;br&gt;+ recommend_piclist : Char&amp;nbsp; [照片列表]&lt;br&gt;+ recommend_picnum : Integer&amp;nbsp; [推荐中照片数]&lt;br&gt;+ recommend_like : Integer&amp;nbsp; [推荐点赞数]&lt;br&gt;+ recommend_clicks : Integer&amp;nbsp; [推荐点击数]&lt;/td&gt;&lt;/tr&gt;&lt;tr&gt;&lt;td&gt;+ create_recommend(title, text, picture)&amp;nbsp; [生成推荐]&lt;br&gt;+ get_recommend_for_range_and_order(type,is_all, &lt;br&gt;user, order)&amp;nbsp; &amp;nbsp;[按一定要求对指定类别推荐排序]&lt;br&gt;+ delete_recommend(key)&amp;nbsp; [删除推荐]&lt;br&gt;+ click(rid)&amp;nbsp; [点击推荐]&lt;/td&gt;&lt;/tr&gt;&lt;/tbody&gt;&lt;/table&gt;" style="text;html=1;overflow=fill;align=left;strokeColor=#f0f0f0;" parent="1" vertex="1">
                    <mxGeometry x="241.5" y="387.5" width="287" height="300" as="geometry"/>
                </mxCell>
                <mxCell id="15" value="&lt;table border=&quot;1&quot; width=&quot;100%&quot; cellpadding=&quot;4&quot; style=&quot;width: 100% ; height: 100% ; border-collapse: collapse&quot;&gt;&lt;tbody&gt;&lt;tr&gt;&lt;th&gt;&lt;pre style=&quot;background-color: #2b2b2b ; color: #a9b7c6 ; font-family: &amp;#34;jetbrains mono&amp;#34; , monospace ; font-size: 9.8pt&quot;&gt;recommend_like  [推荐点赞信息]&lt;/pre&gt;&lt;/th&gt;&lt;/tr&gt;&lt;tr&gt;&lt;td&gt;+ like_id : Char&amp;nbsp; [点赞推荐]&lt;br&gt;+ like_user : Char&amp;nbsp; [点赞用户]&lt;br&gt;+ like_time : Text&amp;nbsp; [点赞推荐所属时段]&lt;br&gt;+ like_catalog : Text&amp;nbsp; [点赞推荐所属种类]&lt;br&gt;&lt;/td&gt;&lt;/tr&gt;&lt;tr&gt;&lt;td&gt;+ like(user_name, rid, otype)&amp;nbsp; [记录点赞]&lt;/td&gt;&lt;/tr&gt;&lt;/tbody&gt;&lt;/table&gt;" style="text;html=1;overflow=fill;strokeColor=#0000FF;align=left;" parent="1" vertex="1">
                    <mxGeometry x="610" y="465" width="280" height="145" as="geometry"/>
                </mxCell>
                <mxCell id="41" style="edgeStyle=orthogonalEdgeStyle;rounded=0;orthogonalLoop=1;jettySize=auto;html=1;exitX=1;exitY=0.5;exitDx=0;exitDy=0;entryX=0;entryY=0.5;entryDx=0;entryDy=0;" parent="1" source="16" target="17" edge="1">
                    <mxGeometry relative="1" as="geometry"/>
                </mxCell>
                <mxCell id="44" style="edgeStyle=orthogonalEdgeStyle;rounded=0;orthogonalLoop=1;jettySize=auto;html=1;exitX=0.5;exitY=0;exitDx=0;exitDy=0;entryX=0.5;entryY=1;entryDx=0;entryDy=0;" parent="1" source="16" target="14" edge="1">
                    <mxGeometry relative="1" as="geometry"/>
                </mxCell>
                <mxCell id="46" style="edgeStyle=orthogonalEdgeStyle;rounded=0;orthogonalLoop=1;jettySize=auto;html=1;exitX=1;exitY=0;exitDx=0;exitDy=0;entryX=0.5;entryY=1;entryDx=0;entryDy=0;" parent="1" source="16" target="15" edge="1">
                    <mxGeometry relative="1" as="geometry">
                        <Array as="points">
                            <mxPoint x="750" y="720"/>
                        </Array>
                    </mxGeometry>
                </mxCell>
                <mxCell id="50" style="edgeStyle=orthogonalEdgeStyle;rounded=0;orthogonalLoop=1;jettySize=auto;html=1;exitX=0;exitY=0;exitDx=0;exitDy=0;entryX=0.5;entryY=1;entryDx=0;entryDy=0;" edge="1" parent="1" source="16" target="48">
                    <mxGeometry relative="1" as="geometry">
                        <Array as="points">
                            <mxPoint x="5" y="720"/>
                        </Array>
                    </mxGeometry>
                </mxCell>
                <mxCell id="16" value="&lt;table border=&quot;1&quot; width=&quot;100%&quot; cellpadding=&quot;4&quot; style=&quot;width: 100% ; height: 100% ; border-collapse: collapse&quot;&gt;&lt;tbody&gt;&lt;tr&gt;&lt;th&gt;&lt;pre style=&quot;background-color: #2b2b2b ; color: #a9b7c6 ; font-family: &amp;#34;jetbrains mono&amp;#34; , monospace ; font-size: 9.8pt&quot;&gt;&lt;pre style=&quot;font-family: &amp;#34;jetbrains mono&amp;#34; , monospace ; font-size: 9.8pt&quot;&gt;usr_info  [用户信息]&lt;/pre&gt;&lt;/pre&gt;&lt;/th&gt;&lt;/tr&gt;&lt;tr&gt;&lt;td&gt;+ usr_id : Char&amp;nbsp; [用户id]&lt;br&gt;+ usr_email : Email&amp;nbsp; [用户邮箱]&lt;br&gt;+ usr_pwd : Char&amp;nbsp; [用户密码]&lt;br&gt;+ usr_nkname :Char&amp;nbsp; [用户昵称]&lt;br&gt;+ usr_pic : Image&amp;nbsp; [用户头像]&lt;br&gt;&lt;/td&gt;&lt;/tr&gt;&lt;tr&gt;&lt;td&gt;+ log_in()&amp;nbsp; [登录]&lt;br&gt;+ log_out()&amp;nbsp; [注销]&lt;br&gt;+ register()&amp;nbsp; [注册]&lt;br&gt;+ email_validate()&amp;nbsp; [验证邮件生成]&lt;br&gt;+ change_pwd()&amp;nbsp; [更改密码]&lt;br&gt;+ reset_pwd()&amp;nbsp; [重设密码]&lt;br&gt;+ upload_pic()&amp;nbsp; [上传头像]&lt;br&gt;+ download_pic()&amp;nbsp; [下载头像]&lt;/td&gt;&lt;/tr&gt;&lt;/tbody&gt;&lt;/table&gt;" style="text;html=1;overflow=fill;strokeColor=#0000FF;align=left;" parent="1" vertex="1">
                    <mxGeometry x="290" y="720" width="190" height="270" as="geometry"/>
                </mxCell>
                <mxCell id="17" value="&lt;table border=&quot;1&quot; width=&quot;100%&quot; cellpadding=&quot;4&quot; style=&quot;width: 100% ; height: 100% ; border-collapse: collapse&quot;&gt;&lt;tbody&gt;&lt;tr&gt;&lt;th&gt;&lt;pre style=&quot;background-color: #2b2b2b ; color: #a9b7c6 ; font-family: &amp;#34;jetbrains mono&amp;#34; , monospace ; font-size: 9.8pt&quot;&gt;&lt;pre style=&quot;font-family: &amp;#34;jetbrains mono&amp;#34; , monospace ; font-size: 9.8pt&quot;&gt;ConfirmString  [验证码信息]&lt;/pre&gt;&lt;/pre&gt;&lt;/th&gt;&lt;/tr&gt;&lt;tr&gt;&lt;td&gt;+ code : Char&amp;nbsp; [验证邮件编码]&lt;br&gt;+ usr_email :Email&amp;nbsp; [验证邮箱]&lt;br&gt;+ created_time :DateTime&amp;nbsp; [邮件生成时间]&lt;/td&gt;&lt;/tr&gt;&lt;tr&gt;&lt;td&gt;+ make_confirm_string()&amp;nbsp; [验证码生成]&lt;br&gt;+ user_confirm()&amp;nbsp; [验证链接判定]&lt;/td&gt;&lt;/tr&gt;&lt;/tbody&gt;&lt;/table&gt;" style="text;html=1;overflow=fill;strokeColor=#0000FF;align=left;" parent="1" vertex="1">
                    <mxGeometry x="590" y="760" width="230" height="190" as="geometry"/>
                </mxCell>
                <mxCell id="48" value="&lt;table border=&quot;1&quot; width=&quot;100%&quot; cellpadding=&quot;4&quot; style=&quot;width: 100% ; height: 100% ; border-collapse: collapse&quot;&gt;&lt;tbody&gt;&lt;tr&gt;&lt;th&gt;&lt;pre style=&quot;background-color: #2b2b2b ; color: #a9b7c6 ; font-family: &amp;#34;jetbrains mono&amp;#34; , monospace ; font-size: 9.8pt&quot;&gt;recommend_click  [推荐&lt;span style=&quot;color: rgb(240 , 240 , 240) ; font-family: &amp;#34;helvetica&amp;#34; ; font-size: 12px ; font-weight: 400 ; background-color: rgb(42 , 42 , 42)&quot;&gt;点击&lt;/span&gt;信息]&lt;/pre&gt;&lt;/th&gt;&lt;/tr&gt;&lt;tr&gt;&lt;td&gt;+ click_id : Char&amp;nbsp; [点击推荐]&lt;br&gt;+ click_user : Char&amp;nbsp; [点击用户]&lt;br&gt;+ click_date : DateTime [点击时间]&lt;br&gt;+ click_time : Text&amp;nbsp; [点击推荐所属时段]&lt;br&gt;+ click_catalog : Text&amp;nbsp; [点击推荐所属种类]&lt;br&gt;&lt;/td&gt;&lt;/tr&gt;&lt;tr&gt;&lt;td&gt;+ click(user_name, rid)&amp;nbsp; [记录点击]&lt;/td&gt;&lt;/tr&gt;&lt;/tbody&gt;&lt;/table&gt;" style="text;html=1;overflow=fill;strokeColor=#0000FF;align=left;" vertex="1" parent="1">
                    <mxGeometry x="-110" y="460" width="230" height="155" as="geometry"/>
                </mxCell>
            </root>
        </mxGraphModel>
    </diagram>
</mxfile>